# xmcd
#
# Track frame offsets: 
#        150
#        17002
#        36365
#        52417
#        71212
#        85252
#        102582
#        130410
#        147795
#        166060
#        184735
#        202550
#        220807
#        242140
#        258512
#        276267
#        292185
#        309260
#
# Disc length: 4363 seconds
#
# Revision: 1
# Processed by: cddbd v1.5.2PL0 Copyright (c) Steve Scherf et al.
# Submitted via: ExactAudioCopy v0.95a5
#
DISCID=15110912
DTITLE=Various Artist - Precious 2 [Disc 2]
DYEAR=2005
DGENRE=R&B
TTITLE0=Ciara - Goodies feat. Petey Pablo
TTITLE1=Jay-Z - Change Clothes
TTITLE2=Britney Spears - My Prerogative
TTITLE3=Mario - Let Me Love You
TTITLE4=Ashanti - Only U
TTITLE5=Nivea - Parking Lot
TTITLE6=Outkast - Roses
TTITLE7=Christina Millian - AM to PM
TTITLE8=JoJo - Leave (Get Out)
TTITLE9=Anthony Hamilton - Charlene
TTITLE10=Kelly Clarkson - Breakaway
TTITLE11=Monica - So Gone
TTITLE12=T.I. - 24's(Explicit Album Version.)
TTITLE13=TLC - No Scrubs (Rap Version)
TTITLE14=Macy Gray - I Try
TTITLE15=J-Kwon - Tipsy
TTITLE16=Erykah Badu - On and On
TTITLE17=Christina Aguilera - Beautiful
EXTD=
EXTT0=
EXTT1=
EXTT2=
EXTT3=
EXTT4=
EXTT5=
EXTT6=
EXTT7=
EXTT8=
EXTT9=
EXTT10=
EXTT11=
EXTT12=
EXTT13=
EXTT14=
EXTT15=
EXTT16=
EXTT17=
PLAYORDER=
